<svg width="47" height="47" viewBox="0 0 47 47" fill="none" xmlns="http://www.w3.org/2000/svg">
<circle cx="23.5" cy="23.5" r="23.5" fill="#EFEFEF"/>
<path d="M24.1796 25.17C24.0746 25.155 23.9396 25.155 23.8196 25.17C21.1796 25.08 19.0796 22.92 19.0796 20.265C19.0796 17.55 21.2696 15.345 23.9996 15.345C26.7146 15.345 28.9196 17.55 28.9196 20.265C28.9046 22.92 26.8196 25.08 24.1796 25.17Z" stroke="white" stroke-width="1.5" stroke-linecap="round" stroke-linejoin="round"/>
<path d="M34.11 35.07C31.44 37.515 27.9 39 24 39C20.1 39 16.56 37.515 13.89 35.07C14.04 33.66 14.94 32.28 16.545 31.2C20.655 28.47 27.375 28.47 31.455 31.2C33.06 32.28 33.96 33.66 34.11 35.07Z" stroke="white" stroke-width="1.5" stroke-linecap="round" stroke-linejoin="round"/>
<path d="M24 39C32.2843 39 39 32.2843 39 24C39 15.7157 32.2843 9 24 9C15.7157 9 9 15.7157 9 24C9 32.2843 15.7157 39 24 39Z" stroke="white" stroke-width="1.5" stroke-linecap="round" stroke-linejoin="round"/>
</svg>
