<svg width="215" height="184" viewBox="0 0 215 184" fill="none" xmlns="http://www.w3.org/2000/svg">
<path d="M145.287 7.6733C145.287 7.6733 115.91 44.8836 68.9075 22.6887C21.9046 0.493824 -25.0976 60.5512 15.3764 97.1088C55.8504 133.666 16.2436 153.755 43.7404 176.159C74.9923 201.624 102.201 149.987 127.008 161.737C181.758 187.672 222.319 177.405 213.179 147.376C197.136 94.6627 176.622 91.2334 192.289 63.8153C207.957 36.3971 173.378 -20.6122 145.287 7.6733Z" fill="#DEE9FF"/>
<path d="M95.0975 124.425C95.0975 149.693 115.578 170.173 140.845 170.173C146.729 170.183 152.558 169.05 158.01 166.838C158.123 166.851 158.235 166.858 158.349 166.858H178.371C179.016 166.858 179.654 166.732 180.249 166.485C180.845 166.239 181.386 165.877 181.841 165.422C182.297 164.966 182.658 164.425 182.905 163.83C183.151 163.234 183.278 162.596 183.278 161.952V141.544C185.476 136.105 186.602 130.292 186.593 124.425C186.593 99.1582 166.112 78.6779 140.845 78.6779C115.578 78.6779 95.0975 99.1582 95.0975 124.425Z" fill="#A2BDFF"/>
<path d="M159.156 91.9983C159.156 123.697 133.463 149.391 101.764 149.391C94.3825 149.403 87.0689 147.982 80.2292 145.207C80.0884 145.223 79.9467 145.232 79.805 145.232H54.6852C53.8768 145.232 53.0762 145.073 52.3292 144.764C51.5822 144.455 50.9035 144.002 50.3319 143.43C49.7603 142.858 49.3069 142.18 48.9977 141.433C48.6886 140.686 48.5297 139.885 48.5301 139.077V113.475C45.7717 106.651 44.3595 99.3586 44.3713 91.9987C44.3713 60.2999 70.0646 34.6065 101.764 34.6065C133.462 34.6065 159.156 60.2995 159.156 91.9983Z" fill="#418DF9"/>
<path d="M75.1471 103.643C79.7408 103.643 83.4647 99.9191 83.4647 95.3254C83.4647 90.7317 79.7408 87.0078 75.1471 87.0078C70.5533 87.0078 66.8294 90.7317 66.8294 95.3254C66.8294 99.9191 70.5533 103.643 75.1471 103.643Z" fill="white"/>
<path d="M99.2678 103.643C103.861 103.643 107.585 99.9191 107.585 95.3254C107.585 90.7317 103.861 87.0078 99.2678 87.0078C94.674 87.0078 90.9501 90.7317 90.9501 95.3254C90.9501 99.9191 94.674 103.643 99.2678 103.643Z" fill="white"/>
<path d="M124.222 103.643C128.815 103.643 132.539 99.9191 132.539 95.3254C132.539 90.7317 128.815 87.0078 124.222 87.0078C119.628 87.0078 115.904 90.7317 115.904 95.3254C115.904 99.9191 119.628 103.643 124.222 103.643Z" fill="white"/>
<path d="M150.006 64.5498C158.275 64.5498 164.978 57.8467 164.978 49.5779C164.978 41.3092 158.275 34.6061 150.006 34.6061C141.737 34.6061 135.034 41.3092 135.034 49.5779C135.034 57.8467 141.737 64.5498 150.006 64.5498Z" fill="#418DF9" stroke="white" stroke-width="15" stroke-miterlimit="10"/>
<path d="M154.765 45.1406C154.568 44.3792 154.214 43.6673 153.726 43.0504C153.295 42.5307 152.737 42.1321 152.106 41.8938C150.743 41.4238 149.263 41.4238 147.9 41.8938C147.27 42.1306 146.713 42.5296 146.286 43.0504C145.794 43.6643 145.439 44.3772 145.247 45.1406C144.985 46.1687 144.862 47.2274 144.882 48.2883V50.8115C144.861 51.8749 144.986 52.9362 145.254 53.9656C145.448 54.735 145.804 55.454 146.299 56.0744C146.728 56.5994 147.287 57.0042 147.919 57.2494C149.274 57.7359 150.757 57.7359 152.112 57.2494C152.741 57.0039 153.295 56.599 153.72 56.0744C154.207 55.4508 154.558 54.7326 154.753 53.9656C155.015 52.9353 155.137 51.8745 155.117 50.8115H155.13V48.2883C155.15 47.2274 155.027 46.1686 154.765 45.1406ZM152.508 51.1886C152.516 51.8621 152.462 52.5349 152.347 53.1985C152.269 53.6705 152.108 54.1248 151.871 54.5404C151.688 54.8611 151.418 55.1229 151.092 55.2949C150.756 55.4565 150.388 55.537 150.016 55.53C149.644 55.5355 149.275 55.4551 148.939 55.2949C148.609 55.1221 148.333 54.8609 148.142 54.5404C147.9 54.1254 147.732 53.6713 147.647 53.1985C147.52 52.5362 147.462 51.8627 147.474 51.1886V47.8864C147.463 47.2146 147.519 46.5434 147.641 45.8827C147.722 45.4195 147.888 44.9751 148.129 44.5716C148.321 44.2633 148.595 44.0148 148.921 43.8542C149.258 43.7074 149.623 43.6316 149.991 43.6316C150.359 43.6316 150.723 43.7074 151.06 43.8542C151.389 44.0109 151.664 44.2603 151.852 44.5716C152.094 44.9751 152.259 45.4195 152.341 45.8827C152.463 46.5434 152.519 47.2146 152.508 47.8864V51.1888L152.508 51.1886Z" fill="white"/>
</svg>
