<svg width="194" height="199" viewBox="0 0 194 199" fill="none" xmlns="http://www.w3.org/2000/svg">
<path d="M2.64571 169.035C10.0517 187.108 22.1271 190.87 30.6177 187.108C47.0379 179.832 89.6917 171.704 133.499 190.811C191.519 216.118 203.863 177.937 185.346 139.316C166.829 100.695 160.552 61.6385 181.899 40.1206C203.247 18.6027 175.312 -15.0584 125.703 19.9806C93.6449 42.6242 70.1175 37.582 57.4834 31.1806C45.5762 25.1476 32.3338 18.8405 19.9272 23.765C4.87255 29.7407 -1.05883 42.6968 21.8452 71.6402C54.3035 112.656 -13.9569 128.524 2.64571 169.035Z" fill="#DEE9FF"/>
<path d="M170.374 44.2735C170.177 44.5231 169.956 44.7529 169.714 44.9595L152.409 59.936L139.492 99.1682L103.483 125.481C103.483 125.481 97.3474 130.621 91.7468 131.098C90.4931 131.536 86.6948 133.014 84.591 135.298C83.9127 136.034 78.5935 151.743 70.3436 173.958C69.9307 175.07 69.1172 175.987 68.0627 176.53C67.0081 177.073 65.7889 177.201 64.6442 176.891C54.335 174.093 31.244 167.932 20.2576 163.77C19.5806 163.514 18.9765 163.096 18.4983 162.553C18.02 162.01 17.6821 161.358 17.5142 160.654C17.3462 159.949 17.3532 159.215 17.5347 158.514C17.7162 157.814 18.0665 157.168 18.5551 156.634C31.1795 142.835 57.7214 111.25 57.7214 111.25L59.522 107.51C59.522 107.51 70.8608 72.0828 74.5695 69.7801C75.972 68.2572 84.0395 56.4475 87.2139 48.2088C87.9353 47.0098 91.2815 42.0196 94.0843 37.7111C96.0703 34.6311 97.7943 31.8912 98.0882 31.1086C98.1516 30.9293 98.2576 30.768 98.3971 30.6388C98.3971 30.6388 98.3883 30.6362 98.3996 30.6298C99.737 29.2327 104.175 29.5483 104.39 34.8521C104.631 40.7027 99.3693 52.8395 98.3103 53.1702C97.7745 54.461 96.2523 61.4128 93.2744 67.2991C93.0179 68.1888 92.6348 70.4872 95.1466 69.9297C97.6608 69.3633 155.816 41.9664 155.816 41.9664L163.029 37.4355C164.091 36.7479 165.355 36.4398 166.614 36.5612C168.106 36.7328 169.474 37.4758 170.43 38.6342C172.488 41.0189 171.143 43.31 170.374 44.2735Z" fill="#699CFF"/>
<path d="M97.0248 38.6737C95.9856 38.7691 94.9248 38.2707 94.0848 37.7105C96.0708 34.6305 97.7948 31.8905 98.0888 31.1079C98.1521 30.9286 98.2581 30.7673 98.3976 30.6381C100.791 33.4962 97.3117 38.3805 97.0248 38.6737Z" fill="#D4E5FF"/>
<path d="M156.453 32.3585L113.837 20.0749C110.865 19.2183 107.762 20.9331 106.905 23.9049L81.1177 113.371C80.2611 116.343 81.9758 119.446 84.9476 120.303L127.564 132.586C130.535 133.443 133.639 131.728 134.496 128.756L160.283 39.2904C161.14 36.3186 159.425 33.2151 156.453 32.3585Z" fill="#0E84E5"/>
<path d="M154.213 34.5991L114.541 23.1641C112.312 22.5217 109.984 23.8077 109.342 26.0366L84.3152 112.863C83.6727 115.092 84.9588 117.42 87.1876 118.062L126.86 129.497C129.089 130.14 131.416 128.854 132.059 126.625L157.085 39.7981C157.728 37.5692 156.442 35.2416 154.213 34.5991Z" fill="#D4E5FF"/>
<path d="M156.243 63.869L149.091 63.8126C145.553 63.7847 142.662 66.6301 142.634 70.168C142.606 73.7059 145.452 76.5965 148.99 76.6245L156.142 76.6809C159.68 76.7088 162.571 73.8634 162.599 70.3255C162.627 66.7876 159.781 63.897 156.243 63.869Z" fill="#699CFF"/>
<path d="M153.763 77.1102L144.707 77.0388C141.838 77.0162 139.494 79.3235 139.472 82.1925C139.449 85.0614 141.756 87.4055 144.625 87.4281L153.681 87.4996C156.55 87.5222 158.894 85.2148 158.917 82.3459C158.939 79.4769 156.632 77.1329 153.763 77.1102Z" fill="#699CFF"/>
<path d="M147.724 88.4776L142.374 88.4354C140.205 88.4183 138.433 90.1624 138.416 92.3309C138.399 94.4994 140.143 96.2712 142.312 96.2883L147.662 96.3305C149.831 96.3476 151.603 94.6036 151.62 92.435C151.637 90.2665 149.893 88.4947 147.724 88.4776Z" fill="#699CFF"/>
<path d="M144.576 89.8986L141.45 89.8739C140.908 89.8697 140.466 90.305 140.462 90.8462L140.44 93.643C140.436 94.1842 140.871 94.6264 141.412 94.6307L144.538 94.6554C145.079 94.6596 145.522 94.2244 145.526 93.6831L145.548 90.8863C145.552 90.3451 145.117 89.9029 144.576 89.8986Z" fill="#D4E5FF"/>
<path d="M147.746 79.504L144.243 79.4764C143.084 79.4673 142.136 80.4 142.127 81.5598L142.114 83.2537C142.104 84.4135 143.037 85.3611 144.197 85.3702L147.699 85.3979C148.859 85.407 149.807 84.4742 149.816 83.3145L149.829 81.6205C149.838 80.4608 148.906 79.5132 147.746 79.504Z" fill="#D4E5FF"/>
<path d="M152.232 66.0677L149.404 66.0454C147.858 66.0332 146.595 67.2769 146.582 68.8232L146.565 71.0472C146.553 72.5935 147.796 73.857 149.343 73.8692L152.171 73.8915C153.717 73.9037 154.981 72.66 154.993 71.1137L155.01 68.8897C155.022 67.3434 153.779 66.0799 152.232 66.0677Z" fill="#D4E5FF"/>
<path d="M46.6087 92.7808C46.407 93.4037 46.3945 94.0724 46.5728 94.7023C46.7512 95.3323 47.1123 95.8952 47.6105 96.3199C48.1088 96.7446 48.7218 97.012 49.372 97.0884C50.0223 97.1647 50.6805 97.0465 51.2636 96.7487C51.8467 96.4509 52.3283 95.9869 52.6477 95.4154C52.967 94.8439 53.1098 94.1905 53.0578 93.5378C53.0058 92.8852 52.7615 92.2626 52.3557 91.7488C51.9499 91.2351 51.4008 90.8532 50.778 90.6514C49.9427 90.381 49.0343 90.4535 48.2524 90.8528C47.4705 91.2521 46.8793 91.9456 46.6087 92.7808Z" fill="#699CFF"/>
<path d="M45.1128 84.7054C43.9163 85.3122 42.8522 86.1504 41.982 87.1714C41.1118 88.1924 40.4529 89.3759 40.0434 90.6534C39.8851 91.1423 39.9274 91.674 40.1611 92.1316C40.3948 92.5892 40.8007 92.9352 41.2895 93.0935C41.7783 93.2518 42.31 93.2095 42.7676 92.9758C43.2252 92.7421 43.5713 92.3362 43.7296 91.8474C43.9859 91.0557 44.3956 90.3223 44.9353 89.6891C45.4751 89.0558 46.1343 88.5351 46.8754 88.1566C47.6164 87.7781 48.4247 87.5494 49.2542 87.4833C50.0837 87.4173 50.918 87.5153 51.7096 87.7718C52.1984 87.9301 52.7301 87.8878 53.1877 87.6541C53.6453 87.4204 53.9913 87.0145 54.1496 86.5257C54.3079 86.0369 54.2656 85.5052 54.0319 85.0476C53.7982 84.59 53.3923 84.2439 52.9035 84.0856C51.6285 83.6685 50.2833 83.5084 48.946 83.6148C47.6087 83.7212 46.3058 84.0919 45.1128 84.7054Z" fill="#699CFF"/>
<path d="M42.211 79.0235C40.267 80.0096 38.5378 81.3716 37.1238 83.0305C35.7097 84.6894 34.6387 86.6123 33.9728 88.688C33.893 88.9304 33.8619 89.1862 33.8812 89.4406C33.9006 89.6951 33.97 89.9432 34.0855 90.1708C34.201 90.3984 34.3603 90.6009 34.5544 90.7667C34.7484 90.9325 34.9732 91.0583 35.216 91.1369C35.4588 91.2156 35.7147 91.2455 35.9691 91.2249C36.2235 91.2043 36.4713 91.1337 36.6983 91.0171C36.9253 90.9005 37.127 90.7402 37.2918 90.5453C37.4567 90.3505 37.5814 90.1251 37.6589 89.8819C38.1733 88.2931 38.9957 86.8213 40.079 85.5503C41.1624 84.2794 42.4854 83.2343 43.9727 82.4748C45.4599 81.7152 47.0822 81.256 48.747 81.1235C50.4117 80.9909 52.0862 81.1876 53.6749 81.7023C54.1637 81.8606 54.6954 81.8182 55.153 81.5845C55.6106 81.3508 55.9566 80.9449 56.1149 80.4561C56.2732 79.9672 56.2308 79.4356 55.9971 78.978C55.7634 78.5204 55.3575 78.1744 54.8687 78.0161C52.797 77.3386 50.6116 77.0789 48.4389 77.2518C46.2662 77.4247 44.1494 78.0269 42.211 79.0235Z" fill="#699CFF"/>
<path d="M56.8398 71.9331C53.9682 71.0028 50.9414 70.6473 47.9324 70.8868C44.9233 71.1264 41.9909 71.9563 39.3027 73.3293C36.6144 74.7022 34.2229 76.5913 32.2648 78.8885C30.3066 81.1858 28.8202 83.8463 27.8904 86.7181C27.812 86.9601 27.782 87.2152 27.8022 87.4689C27.8224 87.7225 27.8924 87.9696 28.0081 88.1962C28.1238 88.4228 28.283 88.6244 28.4766 88.7894C28.6702 88.9545 28.8945 89.0798 29.1365 89.1582C29.3785 89.2365 29.6337 89.2665 29.8873 89.2463C30.1409 89.2261 30.388 89.1562 30.6146 89.0404C30.8412 88.9247 31.0428 88.7655 31.2078 88.5719C31.3729 88.3783 31.4982 88.1541 31.5766 87.912C32.3496 85.5244 33.5854 83.3124 35.2134 81.4024C36.8415 79.4924 38.8298 77.9218 41.0649 76.7804C43.2999 75.6389 45.738 74.9489 48.2397 74.7499C50.7415 74.5508 53.258 74.8464 55.6455 75.62C56.1344 75.7784 56.6662 75.7361 57.1239 75.5023C57.5816 75.2686 57.9277 74.8626 58.0861 74.3737C58.2445 73.8848 58.2021 73.353 57.9684 72.8953C57.7347 72.4376 57.3287 72.0915 56.8398 71.9331Z" fill="#699CFF"/>
<path d="M180.7 1.56037C176.155 -1.21527 172.422 0.203916 171.312 2.02238C170.51 3.33572 171.251 4.62022 172.16 5.17546C173.978 6.28566 174.821 3.24052 178.255 5.33772C179.938 6.36574 180.832 7.92912 179.886 9.47794C178.776 11.2963 176.253 11.1887 174.567 11.4531C173.076 11.6988 170.954 12.2981 169.185 15.1939C168.116 16.9448 168.279 17.7377 169.659 18.5807C171.309 19.588 172.098 19.053 172.489 18.4127C173.558 16.6618 174.209 15.6721 176.944 15.355C178.285 15.2031 182.545 14.6607 184.478 11.4956C186.411 8.33049 185.009 4.19209 180.7 1.56037Z" fill="#0E84E5"/>
<path d="M168.274 20.9244C167.933 20.7164 167.555 20.5776 167.161 20.5158C166.767 20.454 166.364 20.4704 165.976 20.5642C165.589 20.6579 165.223 20.8271 164.901 21.0621C164.578 21.2971 164.305 21.5933 164.097 21.9338C163.889 22.2743 163.751 22.6525 163.689 23.0466C163.627 23.4408 163.643 23.8432 163.737 24.231C163.831 24.6188 164 24.9844 164.235 25.3068C164.47 25.6292 164.766 25.9022 165.107 26.1101C165.795 26.5301 166.621 26.6596 167.404 26.4703C168.187 26.281 168.863 25.7883 169.283 25.1006C169.703 24.413 169.833 23.5866 169.643 22.8034C169.454 22.0202 168.961 21.3443 168.274 20.9244Z" fill="#0E84E5"/>
</svg>
