<svg width="350" height="259" viewBox="0 0 350 259" fill="none" xmlns="http://www.w3.org/2000/svg">
<path d="M101.338 42.0721C101.338 42.0721 140.798 72.0168 200.787 16.0256C254.063 -33.6987 297.564 44.7552 297.869 82.3254C298.263 130.993 244.592 169.935 270.639 201.901C296.685 233.867 218.985 286.654 177.109 240.971C125.017 184.142 110.904 230.315 81.2118 230.315C59.9011 230.315 16.1483 177.364 45.6941 137.97C70.5565 104.82 56.997 93.818 50.4306 82.3254C40.9585 65.7505 63.4531 20.7616 101.338 42.0721Z" fill="#DEE9FF"/>
<path d="M259.757 108.245C261.878 109.033 264.196 109.086 266.401 108.579C275.641 106.459 307.411 100.843 301.89 125.462C300.688 130.347 282.081 157.701 308.579 167.686C310.521 168.427 312.575 168.832 314.652 168.882C322.811 169.05 338.978 167.124 345.745 160.236C353.918 151.916 344.989 155.862 344.989 155.862C344.989 155.862 313.913 169.422 302.937 155.035C301.715 153.434 300.938 151.109 300.715 149.108C300.328 145.638 301.869 141.052 303.894 137.06C306.633 131.657 319.786 107.352 291.229 100.272C284.651 98.705 275.097 97.2978 262.777 102.485C255.591 105.51 257.182 107.288 259.757 108.245Z" fill="#BDD6F9"/>
<path d="M266.116 99.1717L257.845 102.267C254.99 103.336 253.541 106.517 254.61 109.372L255.02 110.467C256.088 113.323 259.269 114.771 262.124 113.702L270.396 110.607C273.251 109.538 274.699 106.357 273.631 103.502L273.221 102.407C272.152 99.5515 268.971 98.1031 266.116 99.1717Z" fill="#0E84E5"/>
<path d="M215.345 108.129L188.068 118.338C186.64 118.872 185.916 120.463 186.45 121.89L186.558 122.177C187.092 123.605 188.682 124.329 190.11 123.795L217.388 113.586C218.815 113.052 219.539 111.461 219.005 110.034L218.898 109.746C218.363 108.319 216.773 107.595 215.345 108.129Z" fill="white"/>
<path d="M222.959 128.47L195.681 138.679C194.253 139.213 193.529 140.804 194.063 142.231L194.171 142.518C194.705 143.946 196.295 144.67 197.723 144.136L225.001 133.927C226.429 133.393 227.153 131.802 226.618 130.374L226.511 130.087C225.977 128.66 224.386 127.936 222.959 128.47Z" fill="white"/>
<path d="M248.143 94.2475L226.035 102.522C223.179 103.59 221.731 106.771 222.8 109.626L230.348 129.794C231.416 132.649 234.597 134.098 237.453 133.029L259.561 124.755C262.416 123.686 263.864 120.505 262.796 117.65L255.248 97.4824C254.179 94.6272 250.998 93.1789 248.143 94.2475Z" fill="#5895F9"/>
<path d="M228.319 99.5385L206.211 107.813C203.355 108.881 201.907 112.062 202.976 114.917L211.981 138.978C213.049 141.834 216.23 143.282 219.085 142.213L241.194 133.939C244.049 132.871 245.497 129.69 244.428 126.834L235.423 102.773C234.355 99.9182 231.174 98.4699 228.319 99.5385Z" fill="#699CFF"/>
<path d="M231.78 94.6552L231.606 94.7201C229.703 95.4325 228.737 97.5531 229.45 99.4565L242.065 133.164C242.777 135.067 244.898 136.033 246.801 135.32L246.975 135.255C248.878 134.543 249.844 132.422 249.131 130.519L236.516 96.8118C235.804 94.9084 233.683 93.9428 231.78 94.6552Z" fill="#208AF2"/>
<path d="M6.34903 116.206C6.34903 116.206 50.7497 103.728 44.3034 132.476C43.184 137.025 27.0695 160.446 46.2643 171.691C50.3859 174.106 55.1423 175.175 59.9188 175.15C68.4827 175.106 82.0591 173.457 88.1582 167.249C96.3322 158.929 87.4023 162.874 87.4023 162.874C87.4023 162.874 61.9023 173.364 48.7835 165.002C44.304 162.148 42.2736 156.62 43.49 151.449C44.1117 148.88 45.0585 146.402 46.3074 144.073C49.1605 138.729 62.1998 114.365 33.643 107.285C27.0647 105.718 17.5101 104.311 5.19038 109.498C-7.12934 114.685 6.34903 116.206 6.34903 116.206Z" fill="#BDD6F9"/>
<path d="M94.1286 156.442L85.8575 159.537C83.0023 160.606 81.5539 163.787 82.6225 166.642L83.0325 167.737C84.1011 170.593 87.282 172.041 90.1372 170.972L98.4083 167.877C101.264 166.808 102.712 163.627 101.643 160.772L101.233 159.677C100.165 156.821 96.9838 155.373 94.1286 156.442Z" fill="#0E84E5"/>
<path d="M108.103 142.833L95.8447 147.421C92.9895 148.49 91.5412 151.671 92.6098 154.526L98.5206 170.319C99.5892 173.174 102.77 174.623 105.625 173.554L117.883 168.966C120.739 167.898 122.187 164.717 121.118 161.862L115.208 146.068C114.139 143.213 110.958 141.765 108.103 142.833Z" fill="#5895F9"/>
<path d="M128.51 130.674L110.23 137.516C107.375 138.584 105.926 141.765 106.995 144.62L116 168.681C117.069 171.537 120.249 172.985 123.105 171.916L141.385 165.075C144.24 164.006 145.689 160.825 144.62 157.97L135.615 133.909C134.546 131.054 131.365 129.605 128.51 130.674Z" fill="#699CFF"/>
<path d="M132.382 125.691L132.209 125.756C130.305 126.468 129.34 128.589 130.052 130.492L142.668 164.199C143.38 166.103 145.501 167.068 147.404 166.356L147.577 166.291C149.481 165.578 150.446 163.458 149.734 161.554L137.119 127.847C136.406 125.944 134.286 124.978 132.382 125.691Z" fill="#208AF2"/>
<path d="M179.063 104.217C178.404 104.144 177.8 103.818 177.377 103.308C176.954 102.799 176.745 102.145 176.794 101.484L178.158 76.5707C178.24 75.0825 179.496 73.9519 180.922 74.0834L182.91 74.2674C184.336 74.399 185.357 75.7394 185.157 77.2171L181.806 101.947C181.729 102.605 181.4 103.209 180.889 103.632C180.378 104.055 179.724 104.264 179.063 104.217Z" fill="#418DF9"/>
<path d="M167.285 106.365C167.08 106.425 166.866 106.444 166.653 106.421C166.441 106.399 166.236 106.334 166.048 106.232C165.861 106.13 165.696 105.992 165.562 105.825C165.428 105.659 165.328 105.468 165.268 105.264L160.397 89.766C160.255 89.3253 160.294 88.8463 160.505 88.4343C160.716 88.0222 161.082 87.7107 161.523 87.5681L162.784 87.1876C163 87.1245 163.227 87.1069 163.451 87.1359C163.674 87.165 163.889 87.24 164.082 87.3564C164.276 87.4728 164.442 87.6279 164.572 87.812C164.702 87.9961 164.793 88.2051 164.838 88.426L168.448 104.304C168.549 104.731 168.485 105.18 168.269 105.562C168.054 105.944 167.702 106.23 167.285 106.365Z" fill="#418DF9"/>
<path d="M160.712 115.302C159.84 116.383 158.084 116.37 156.733 115.273L132.745 95.7829C131.312 94.6188 130.89 92.6918 131.816 91.5454L133.106 89.9469C134.032 88.8 135.933 88.894 137.289 90.1537L159.987 111.242C161.265 112.43 161.585 114.22 160.712 115.302Z" fill="#418DF9"/>
<path d="M171.801 165.641C172.419 165.88 172.92 166.349 173.199 166.95C173.477 167.551 173.512 168.237 173.296 168.863L165.615 192.601C165.156 194.019 163.652 194.79 162.307 194.3L160.432 193.615C159.086 193.123 158.441 191.566 159.012 190.189L168.568 167.136C168.811 166.518 169.282 166.018 169.884 165.74C170.487 165.461 171.173 165.426 171.801 165.641Z" fill="#418DF9"/>
<path d="M183.736 166.573C183.949 166.567 184.162 166.603 184.361 166.679C184.561 166.755 184.743 166.87 184.898 167.017C185.053 167.164 185.178 167.339 185.265 167.534C185.352 167.729 185.4 167.939 185.405 168.152L186.157 184.38C186.181 184.843 186.021 185.296 185.712 185.64C185.403 185.985 184.969 186.192 184.507 186.218L183.19 186.264C182.965 186.269 182.741 186.228 182.532 186.143C182.324 186.058 182.135 185.931 181.978 185.769C181.821 185.607 181.699 185.414 181.621 185.203C181.542 184.992 181.508 184.767 181.52 184.542L182.086 168.268C182.098 167.83 182.274 167.412 182.58 167.098C182.885 166.784 183.298 166.596 183.736 166.573Z" fill="#418DF9"/>
<path d="M192.373 159.611C193.493 158.788 195.187 159.249 196.213 160.655L214.428 185.624C215.516 187.115 215.433 189.086 214.244 189.958L212.588 191.174C211.4 192.047 209.586 191.47 208.596 189.906L192.036 163.72C191.105 162.246 191.253 160.433 192.373 159.611Z" fill="#418DF9"/>
</svg>
